<?xml version="1.0" encoding="utf-8"?>
<!-- Generator: Adobe Illustrator 16.0.0, SVG Export Plug-In . SVG Version: 6.00 Build 0)  -->
<!DOCTYPE svg PUBLIC "-//W3C//DTD SVG 1.1//EN" "http://www.w3.org/Graphics/SVG/1.1/DTD/svg11.dtd">
<svg version="1.1" id="Layer_1" xmlns="http://www.w3.org/2000/svg" xmlns:xlink="http://www.w3.org/1999/xlink" x="0px" y="0px"
	 width="90px" height="30px" viewBox="0 0 90 30" enable-background="new 0 0 90 30" xml:space="preserve">
<g>
	<g>
		<path d="M16.273,0.538C8.286,0.538,1.811,7.013,1.811,15s6.475,14.463,14.462,14.463S30.735,22.987,30.735,15
			S24.26,0.538,16.273,0.538z M16.273,25.804c-5.967,0-10.804-4.837-10.804-10.804c0-5.966,4.837-10.803,10.804-10.803
			S27.077,9.034,27.077,15C27.077,20.967,22.24,25.804,16.273,25.804z"/>
	</g>
</g>
<text transform="matrix(1 0 0 1 29.7026 28.0996)" font-family="'MyriadPro-Regular'" font-size="18">ue      ns</text>
<text transform="matrix(1 0 0 1 47.6445 28.0996)" font-family="'MyriadPro-Regular'" font-size="54">a</text>
<rect x="22" y="22" transform="matrix(-0.7071 0.7071 -0.7071 -0.7071 58.5018 27.7678)" width="3" height="7.999"/>
</svg>
